<svg id="Capa_1" data-name="Capa 1" xmlns="http://www.w3.org/2000/svg" viewBox="0 0 1679 798"><defs><style>.cls-1{opacity:0.87;}.cls-2{fill:#fff;}.cls-3{fill:#414d51;}.cls-4{fill:#652a48;}.cls-5,.cls-6{fill:none;stroke-miterlimit:10;}.cls-5{stroke:#f4f9f4;stroke-width:35px;}.cls-6{stroke:#f5f7f5;stroke-width:22px;}</style></defs><title>logohidrogeno</title><g class="cls-1"><path class="cls-2" d="M18.3545,393.6175h50.51V543.7089h44.08V393.6175h50.5046v350.16H112.944V593.6807h-44.08V743.7774h-50.51Z"/><path class="cls-2" d="M210.7461,393.6175h50.51v350.16h-50.51Z"/><path class="cls-2" d="M308.5482,393.6175h77.8133q67.2781.1837,67.2808,73.7058V670.2474q0,73.3517-70.4933,73.53H308.5482Zm50.51,49.7961V693.9867h22.13q21.9439,0,21.9492-23.7393V467.3233q0-23.91-21.9492-23.91Z"/><path class="cls-2" d="M496.4754,393.6175h73.53q67.2781.1837,67.2809,73.7058v52.6516q0,46.2292-39.7964,60.8559l56.7538,162.9466h-55.326L553.41,589.76l-6.425.89v153.128h-50.51Zm50.51,49.7961V543.7089h11.5979q10.5246,0,14.4535-1.4278,13.745-5.522,13.745-22.3062V467.3233q0-23.91-21.9493-23.91Z"/><path class="cls-2" d="M826.1138,675.7774q0,73.5353-72.64,73.7111-72.4645,0-72.4592-73.7111V461.6123q0-73.5194,72.4592-73.53,72.6323,0,72.64,73.53ZM752.0457,380.0537H724.0284l25.3376-45.15h39.6259Zm23.5582,81.5586q0-23.5583-21.9546-23.734h-.3516q-21.7842,0-21.7788,23.734V675.7774q0,23.7419,21.9546,23.7393,22.1277,0,22.13-23.7393Z"/><path class="cls-2" d="M1008.6869,675.7774q0,73.5353-72.635,73.7111-72.4646,0-72.4592-73.7111V461.6123q0-73.5194,72.4592-73.53,72.6324,0,72.635,73.53v47.1163H958.1823V461.6123q0-23.5583-21.9493-23.734h-.3622q-21.7763,0-21.7682,23.734V675.7774q0,23.7419,21.9493,23.7393,22.1277,0,22.13-23.7393V593.6807H936.233V543.7089h72.4539Z"/><path class="cls-2" d="M1051.5252,393.6175h130.9977v49.7961h-80.4877V543.7089h69.2467v49.9718h-69.2467v100.306h80.4877v49.7907H1051.5252Z"/><path class="cls-3" d="M1524.1228,441.7039l-36.4845,26.2728-58.0852,18.1062-64.8988-4.2-26.826,4.2741s-11.0736-15.8037-16.263-22.0967c-7.1051-8.6161-35.11-38.7305-35.11-38.7305l27.04-1.8368,31.0319,1.4611c.0272,0,8.1993,1.4258,8.2265,1.424l61.37-4.3672,36.0943-18.5038,32.1526-21.8238Z"/><path class="cls-4" d="M1489.2463,384.3564l-48.5732,27.3943-58.0782,16.4705-64.03-6.2759-27.6849,7.6136s-11.29-15.65-16.5657-21.8707l-28.8924-34.07,31.3792-19.1287,87.608,8.1914,37.7122-17.3125,38.41-22.7288Z"/><path class="cls-5" d="M1417.1543,544.8633c44.5215,116.518,104.6173,192.3848,151.0668,181.27,60.2528-14.4183,74.7273-169.7363,32.33-346.9125S1474.9384,70.1028,1414.6856,84.521c-48.8961,11.7006-67.6445,116.192-50.3163,249.8546"/><path class="cls-6" d="M1221.0957,397.5811c.1814-8.3765,1.9676-19.5226,10.2187-27.2345,19.9936-18.6871,57.9724,1.4593,100.2-.7341,27.649-1.4362,65.3483-12.8771,110.79-55.6993"/><path class="cls-6" d="M1284.8855,453.7488c-.0155-8.288,1.4319-19.2818,9.0985-26.7311,18.5775-18.0506,55.1137,2.7442,95.1862,1.5195,26.2378-.802,61.8-11.2824,104.0153-52.6546"/><path class="cls-6" d="M1332.4593,509.9166c-.08-8.2592,1.257-19.2034,8.733-26.5669,18.1153-17.8429,54.1807,3.1635,93.55,2.2549,25.7772-.595,60.6425-10.762,101.8045-51.661"/><path class="cls-2" d="M1209.5333,395.9068h24.6706l80.7647,200.8106,6.1729-97.27a5.6729,5.6729,0,0,1,4.6468-5.2222l39.2435-7.1352.0642,256.6875h-54.1485L1261.58,547.1025V743.7774h-52.0465Z"/></g></svg>